<?xml version="1.0" encoding="UTF-8" standalone="no" ?>
<!DOCTYPE svg PUBLIC "-//W3C//DTD SVG 1.1//EN" "http://www.w3.org/Graphics/SVG/1.1/DTD/svg11.dtd">
<svg xmlns="http://www.w3.org/2000/svg" xmlns:xlink="http://www.w3.org/1999/xlink" version="1.1" width="1080" height="1000" viewBox="0 0 1080 1000" xml:space="preserve">
<desc>Created with Fabric.js 5.2.4</desc>
<defs>
</defs>
<g transform="matrix(Infinity NaN NaN Infinity 0 0)" id="46ad20c7-2031-4393-9322-e295c45d2e5c"  >
</g>
<g transform="matrix(1 0 0 1 540 500)" id="a6fbcea5-5a93-4128-84ee-63e1785b2d54"  >
<rect style="stroke: none; stroke-width: 1; stroke-dasharray: none; stroke-linecap: butt; stroke-dashoffset: 0; stroke-linejoin: miter; stroke-miterlimit: 4; fill: rgb(255,255,255); fill-rule: nonzero; opacity: 1; visibility: hidden;" vector-effect="non-scaling-stroke"  x="-540" y="-500" rx="0" ry="0" width="1080" height="1000" />
</g>
<g transform="matrix(7.33 0 0 7.33 310.63 873.63)"  >
<path style="stroke: none; stroke-width: 1; stroke-dasharray: none; stroke-linecap: butt; stroke-dashoffset: 0; stroke-linejoin: miter; stroke-miterlimit: 4; fill: rgb(37,93,196); fill-rule: nonzero; opacity: 1;" vector-effect="non-scaling-stroke"  transform=" translate(-474.09, -1062.35)" d="M 467.19 1051.85 L 464.48 1071.1899999999998 C 464.3950908519594 1071.7787613732605 464.6783881155143 1072.3596584449842 465.19459300804886 1072.6552629560936 C 465.71079790058343 1072.9508674672031 466.35518337286777 1072.9012075177125 466.82 1072.5299999999997 L 483.71 1059.0499999999997 Z" stroke-linecap="round" />
</g>
<g transform="matrix(7.33 0 0 7.33 769.4 873.63)"  >
<path style="stroke: none; stroke-width: 1; stroke-dasharray: none; stroke-linecap: butt; stroke-dashoffset: 0; stroke-linejoin: miter; stroke-miterlimit: 4; fill: rgb(37,93,196); fill-rule: nonzero; opacity: 1;" vector-effect="non-scaling-stroke"  transform=" translate(-536.71, -1062.35)" d="M 543.61 1051.85 L 546.32 1071.1899999999998 C 546.4049091480407 1071.7787613732607 546.1216118844858 1072.3596584449842 545.6054069919512 1072.6552629560938 C 545.0892020994166 1072.9508674672034 544.4448166271322 1072.9012075177125 543.98 1072.5299999999997 L 527.09 1059.0499999999997 Z" stroke-linecap="round" />
</g>
<g transform="matrix(7.33 0 0 7.33 310.63 873.63)"  >
<path style="stroke: none; stroke-width: 1; stroke-dasharray: none; stroke-linecap: butt; stroke-dashoffset: 0; stroke-linejoin: miter; stroke-miterlimit: 4; fill: rgb(37,93,196); fill-rule: nonzero; opacity: 0.3;" vector-effect="non-scaling-stroke"  transform=" translate(-474.09, -1062.35)" d="M 467.19 1051.85 L 464.48 1071.1899999999998 C 464.3950908519594 1071.7787613732605 464.6783881155143 1072.3596584449842 465.19459300804886 1072.6552629560936 C 465.71079790058343 1072.9508674672031 466.35518337286777 1072.9012075177125 466.82 1072.5299999999997 L 483.71 1059.0499999999997 Z" stroke-linecap="round" />
</g>
<g transform="matrix(7.33 0 0 7.33 769.4 873.63)"  >
<path style="stroke: none; stroke-width: 1; stroke-dasharray: none; stroke-linecap: butt; stroke-dashoffset: 0; stroke-linejoin: miter; stroke-miterlimit: 4; fill: rgb(37,93,196); fill-rule: nonzero; opacity: 0.3;" vector-effect="non-scaling-stroke"  transform=" translate(-536.71, -1062.35)" d="M 543.61 1051.85 L 546.32 1071.1899999999998 C 546.4049091480407 1071.7787613732607 546.1216118844858 1072.3596584449842 545.6054069919512 1072.6552629560938 C 545.0892020994166 1072.9508674672034 544.4448166271322 1072.9012075177125 543.98 1072.5299999999997 L 527.09 1059.0499999999997 Z" stroke-linecap="round" />
</g>
<g transform="matrix(5.19 5.17 -5.17 5.19 844.59 285.15)" id="_Rectangle_"  >
<rect style="stroke: none; stroke-width: 1; stroke-dasharray: none; stroke-linecap: butt; stroke-dashoffset: 0; stroke-linejoin: miter; stroke-miterlimit: 4; fill: rgb(37,93,196); fill-rule: nonzero; opacity: 1;" vector-effect="non-scaling-stroke"  x="-5.05" y="-11.01" rx="0" ry="0" width="10.1" height="22.02" />
</g>
<g transform="matrix(5.19 5.17 -5.17 5.19 844.59 285.15)" id="_Rectangle_2"  >
<rect style="stroke: none; stroke-width: 1; stroke-dasharray: none; stroke-linecap: butt; stroke-dashoffset: 0; stroke-linejoin: miter; stroke-miterlimit: 4; fill: rgb(37,93,196); fill-rule: nonzero; opacity: 0.5;" vector-effect="non-scaling-stroke"  x="-5.05" y="-11.01" rx="0" ry="0" width="10.1" height="22.02" />
</g>
<g transform="matrix(7.33 0 0 7.33 913.22 215.2)"  >
<path style="stroke: none; stroke-width: 1; stroke-dasharray: none; stroke-linecap: butt; stroke-dashoffset: 0; stroke-linejoin: miter; stroke-miterlimit: 4; fill: rgb(37,93,196); fill-rule: nonzero; opacity: 1;" vector-effect="non-scaling-stroke"  transform=" translate(-556.34, -972.48)" d="M 567.58 993.78 C 568.5290035452803 994.738569952669 569.8593965281874 995.2185264448349 571.2018059392053 995.0866133813245 C 572.5442153502232 994.9547003178141 573.7557364279401 994.2249603630435 574.5 993.1 C 581.7103830967967 981.9922638519415 580.153004651244 967.3520355514447 570.7672161679579 958.0097445431069 C 561.3814276846718 948.667453534769 546.734123098212 947.1780977462442 535.66 954.44 C 534.5392898721444 955.1892156279171 533.8155345974072 956.4032633312875 533.6894636787302 957.7454337270484 C 533.5633927600533 959.0876041228094 534.0484105278989 960.4151926466536 535.01 961.36 Z" stroke-linecap="round" />
</g>
<g transform="matrix(7.33 0 0 7.33 1020.53 225.62)"  >
<path style="stroke: none; stroke-width: 1; stroke-dasharray: none; stroke-linecap: butt; stroke-dashoffset: 0; stroke-linejoin: miter; stroke-miterlimit: 4; fill: rgb(37,93,196); fill-rule: nonzero; opacity: 0.3;" vector-effect="non-scaling-stroke"  transform=" translate(-570.99, -973.9)" d="M 570.71 958.06 C 568.4609104567372 955.8333246751176 565.8505902238928 954.0040717658317 562.99 952.65 C 563.34 952.97 563.71 953.27 564.05 953.65 C 574.4409893612724 964.0085511484789 575.0736266250645 980.6316406315685 565.5 991.75 L 567.58 993.82 C 568.5290035452803 994.778569952669 569.8593965281874 995.258526444835 571.2018059392053 995.1266133813245 C 572.5442153502232 994.9947003178141 573.7557364279401 994.2649603630435 574.5 993.1400000000001 C 581.6899974223237 982.0214158223056 580.1088425378022 967.3863463370766 570.71 958.06 Z" stroke-linecap="round" />
</g>
<g transform="matrix(-5.19 5.17 -5.17 -5.19 235.79 285.62)" id="_Rectangle_3"  >
<rect style="stroke: none; stroke-width: 1; stroke-dasharray: none; stroke-linecap: butt; stroke-dashoffset: 0; stroke-linejoin: miter; stroke-miterlimit: 4; fill: rgb(37,93,196); fill-rule: nonzero; opacity: 1;" vector-effect="non-scaling-stroke"  x="-5.05" y="-11.01" rx="0" ry="0" width="10.1" height="22.02" />
</g>
<g transform="matrix(-5.19 5.17 -5.17 -5.19 235.79 285.62)" id="_Rectangle_4"  >
<rect style="stroke: none; stroke-width: 1; stroke-dasharray: none; stroke-linecap: butt; stroke-dashoffset: 0; stroke-linejoin: miter; stroke-miterlimit: 4; fill: rgb(37,93,196); fill-rule: nonzero; opacity: 0.5;" vector-effect="non-scaling-stroke"  x="-5.05" y="-11.01" rx="0" ry="0" width="10.1" height="22.02" />
</g>
<g transform="matrix(7.33 0 0 7.33 166.82 215.2)"  >
<path style="stroke: none; stroke-width: 1; stroke-dasharray: none; stroke-linecap: butt; stroke-dashoffset: 0; stroke-linejoin: miter; stroke-miterlimit: 4; fill: rgb(37,93,196); fill-rule: nonzero; opacity: 1;" vector-effect="non-scaling-stroke"  transform=" translate(-454.46, -972.48)" d="M 443.22 993.78 C 442.2709964547198 994.738569952669 440.94060347181266 995.2185264448349 439.59819406079475 995.0866133813245 C 438.2557846497768 994.9547003178141 437.04426357205995 994.2249603630435 436.3 993.1 C 429.0896169032034 981.9922638519415 430.646995348756 967.3520355514448 440.03278383204207 958.009744543107 C 449.41857231532816 948.6674535347692 464.06587690178793 947.1780977462444 475.14 954.44 C 476.26071012785553 955.1892156279171 476.9844654025928 956.4032633312875 477.1105363212697 957.7454337270484 C 477.2366072399467 959.0876041228094 476.75158947210105 960.4151926466536 475.78999999999996 961.36 Z" stroke-linecap="round" />
</g>
<g transform="matrix(7.33 0 0 7.33 59.46 225.62)"  >
<path style="stroke: none; stroke-width: 1; stroke-dasharray: none; stroke-linecap: butt; stroke-dashoffset: 0; stroke-linejoin: miter; stroke-miterlimit: 4; fill: rgb(37,93,196); fill-rule: nonzero; opacity: 0.3;" vector-effect="non-scaling-stroke"  transform=" translate(-439.81, -973.9)" d="M 440.09 958.06 C 442.33759249697476 955.8315328309513 444.9482364701153 954.0020530518464 447.81 952.65 C 447.46 952.97 447.09 953.27 446.74 953.65 C 436.3490106387276 964.008551148479 435.7163733749354 980.6316406315685 445.29 991.75 L 443.22 993.82 C 442.2709964547198 994.778569952669 440.94060347181266 995.258526444835 439.59819406079475 995.1266133813245 C 438.2557846497768 994.9947003178141 437.04426357205995 994.2649603630435 436.3 993.1400000000001 C 429.1100025776763 982.0214158223056 430.6911574621979 967.3863463370766 440.09 958.06 Z" stroke-linecap="round" />
</g>
<g transform="matrix(7.33 0 0 7.33 540 520.66)" id="_Path_9"  >
<circle style="stroke: none; stroke-width: 1; stroke-dasharray: none; stroke-linecap: butt; stroke-dashoffset: 0; stroke-linejoin: miter; stroke-miterlimit: 4; fill: rgb(37,93,196); fill-rule: nonzero; opacity: 1;" vector-effect="non-scaling-stroke"  cx="0" cy="0" r="53.5" />
</g>
<g transform="matrix(7.33 0 0 7.33 540 520.66)" id="_Path_10"  >
<circle style="stroke: none; stroke-width: 1; stroke-dasharray: none; stroke-linecap: butt; stroke-dashoffset: 0; stroke-linejoin: miter; stroke-miterlimit: 4; fill: rgb(37,93,196); fill-rule: nonzero; opacity: 0.3;" vector-effect="non-scaling-stroke"  cx="0" cy="0" r="46.53" />
</g>
<g transform="matrix(7.33 0 0 7.33 540 520.66)" id="_Path_11"  >
<circle style="stroke: none; stroke-width: 1; stroke-dasharray: none; stroke-linecap: butt; stroke-dashoffset: 0; stroke-linejoin: miter; stroke-miterlimit: 4; fill: rgb(191,224,254); fill-rule: nonzero; opacity: 1;" vector-effect="non-scaling-stroke"  cx="0" cy="0" r="43.46" />
</g>
</svg>